<?xml version="1.0" ?><svg viewBox="0 0 64 64" xmlns="http://www.w3.org/2000/svg"><defs><style>.cls-1{fill:none;stroke:#000;stroke-linejoin:round;stroke-width:2px;}</style></defs><title/><g data-name="Layer 14" id="Layer_14"><rect class="cls-1" height="20" rx="2" ry="2" width="10" x="15" y="42"/><rect class="cls-1" height="20" rx="2" ry="2" width="10" x="39" y="42"/><polyline class="cls-1" points="49 47 53 47 53 57 49 57"/><polyline class="cls-1" points="53 49 59 49 59 55 53 55"/><polyline class="cls-1" points="15 47 11 47 11 57 15 57"/><polyline class="cls-1" points="11 49 5 49 5 55 11 55"/><line class="cls-1" x1="25" x2="39" y1="49" y2="49"/><line class="cls-1" x1="25" x2="39" y1="55" y2="55"/><path class="cls-1" d="M6,2H22a0,0,0,0,1,0,0v8a0,0,0,0,1,0,0H6A4,4,0,0,1,2,6V6A4,4,0,0,1,6,2Z"/><polyline class="cls-1" points="22 4 28 4 28 8 22 8"/><path class="cls-1" d="M45,30H61a0,0,0,0,1,0,0v8a0,0,0,0,1,0,0H45a4,4,0,0,1-4-4v0A4,4,0,0,1,45,30Z" transform="translate(102 68) rotate(180)"/><polyline class="cls-1" points="41 32 35 32 35 36 41 36"/><path class="cls-1" d="M28,6H58a4,4,0,0,1,4,4h0a4,4,0,0,1-4,4H5a3,3,0,0,0-3,3H2a3,3,0,0,0,3,3H59a3,3,0,0,1,3,3h0a3,3,0,0,1-3,3H6a4,4,0,0,0-4,4H2a4,4,0,0,0,4,4H35"/></g></svg>