<?xml version="1.0" encoding="UTF-8" standalone="no"?>
<svg
   xmlns:dc="http://purl.org/dc/elements/1.1/"
   xmlns:cc="http://creativecommons.org/ns#"
   xmlns:rdf="http://www.w3.org/1999/02/22-rdf-syntax-ns#"
   xmlns:svg="http://www.w3.org/2000/svg"
   xmlns="http://www.w3.org/2000/svg"
   xml:space="preserve"
   width="183.218mm"
   height="57.3357mm"
   version="1.1"
   style="shape-rendering:geometricPrecision; text-rendering:geometricPrecision; image-rendering:optimizeQuality; fill-rule:evenodd; clip-rule:evenodd"
   viewBox="0 0 18257.7 5713.52"
   id="svg71"><metadata
   id="metadata75"><rdf:RDF><cc:Work
       rdf:about=""><dc:format>image/svg+xml</dc:format><dc:type
         rdf:resource="http://purl.org/dc/dcmitype/StillImage" /><dc:title></dc:title></cc:Work></rdf:RDF></metadata>
 <defs
   id="defs4">
  <style
   type="text/css"
   id="style2">
   <![CDATA[
    .str1 {stroke:#FEFEFE;stroke-width:128.43;stroke-miterlimit:22.9256}
    .str2 {stroke:#FEFEFE;stroke-width:95.55;stroke-miterlimit:22.9256}
    .str5 {stroke:#FEFEFE;stroke-width:95.55;stroke-miterlimit:22.9256}
    .str0 {stroke:#FEFEFE;stroke-width:95.55;stroke-miterlimit:22.9256}
    .str3 {stroke:#FEFEFE;stroke-width:95.55;stroke-miterlimit:22.9256}
    .str4 {stroke:#FEFEFE;stroke-width:95.55;stroke-miterlimit:22.9256}
    .fil1 {fill:none}
    .fil0 {fill:#FEFEFE}
    .fil2 {fill:#ED3237}
    .fil4 {fill:#003399}
    .fil3 {fill:red}
   ]]>
  </style>
 
  
  
  
  
  
  
  
  
  
  
  
  
  
 </defs>
 <g
   id="g964"><path
     class="fil0"
     d="m 2868.71,4835.1 v -888.43 -28.36 h 28.36 141.16 10.21 l 7.94,6.64 625.15,523.39 0.23,0.17 0.17,0.17 c 10.09,8.05 20.25,16.73 30.4,25.64 l 19.11,17.07 -1.76,-28.53 v -0.34 l -1.31,-27.62 v -0.74 l -0.45,-20.31 -0.12,-0.56 v -466.62 -28.36 h 28.36 185.98 28.36 v 28.36 888.43 28.36 h -28.36 -141.16 -10.15 l -8,-6.75 -652.54,-548.98 -0.68,-0.45 -0.52,-0.46 -0.11,-0.23 -19.79,-17.92 0.05,0.97 v 0.45 c 0.63,11.17 1.2,22.52 1.47,33.63 v 0.34 l 0.52,30.52 0.11,0.45 v 480.07 28.36 h -28.36 -185.92 -28.36 v -28.36 z m 1761.5,-888.43 v 693.04 h 532.07 v -693.04 -28.36 h 28.36 206.63 28.36 v 28.36 678.69 c 0,88.82 -18.15,151.1 -54.34,185.92 -18.65,18.21 -45.14,31.77 -79.23,40.28 -31.59,7.88 -70.27,11.91 -115.76,11.91 h -560.94 c -45.03,0 -83.38,-4.03 -114.75,-11.91 h -0.11 c -33.8,-8.57 -60.07,-22.01 -78.89,-40.16 -19,-18.16 -33.12,-43.68 -42.14,-76.23 -8.4,-30.28 -12.6,-67.04 -12.6,-109.8 v -678.69 -28.36 h 28.36 206.63 28.36 v 28.36 z m 1663.43,186.76 v 701.67 28.36 h -28.36 -206.57 -28.36 v -28.36 -701.67 h -379.73 -28.36 v -28.35 -158.41 -28.36 h 28.36 1024.45 28.36 v 28.36 158.41 28.35 h -28.36 z m 1302.26,-5.15 h -436.23 v 191.19 h 436.23 c 29.27,0 47.98,-3.17 55.92,-9.41 2.26,-1.99 4.3,-4.94 5.67,-8.91 v -0.11 c 2.15,-6.07 3.29,-14.18 3.29,-24.06 V 4169.9 c 0,-9.7 -1.08,-17.52 -3.18,-23.31 -1.42,-3.92 -3.4,-6.98 -5.78,-8.91 -3.12,-2.43 -8.8,-4.59 -16.56,-6.24 -10.04,-2.04 -23.2,-3.17 -39.36,-3.17 z m -696.11,706.82 v -888.43 -28.36 h 28.36 759.29 c 37.66,0 70.73,3.74 98.86,11.17 29.72,7.82 54.22,20.02 73.22,36.35 19.68,16.62 34.43,38.29 44.02,64.94 h 0.05 c 9.08,24.96 13.67,54.34 13.67,87.8 v 208.9 c 0,33.12 -4.59,62.33 -13.67,87.28 h -0.05 c -9.59,26.5 -24.27,48.21 -43.91,65.06 -19.11,16.45 -43.62,28.7 -73.33,36.64 h -0.12 c -28.01,7.42 -61.09,11.28 -98.74,11.28 h -36.47 l 349.11,285.41 38.68,31.65 13.44,-23.65 503.04,-888.44 8.11,-14.4 h 16.5 199.42 16.39 l 8.22,14.29 509.62,888.43 24.32,42.43 h -48.95 -232.15 -16.79 l -8.05,-14.75 -98.63,-179.8 h -529.97 l -95.57,179.46 -8.05,15.09 h -16.85 -206 -15.26 -33.35 -46.06 -296.69 -11.12 l -8.28,-7.77 -349.83,-327.95 h -156.55 v 307.36 28.36 h -28.35 -203.17 -28.36 v -28.36 z m 1622.49,-383.02 h 294.82 l -145.25,-273.56 z m 1022.34,383.02 v -888.43 -28.36 h 28.36 166.98 13.72 l 8.57,10.94 396.4,508.26 386.7,-508.03 8.46,-11.17 h 14 165.62 28.36 v 28.36 888.43 28.36 h -28.36 -191.14 -28.36 V 4835.1 4310 l -327.55,435.31 -8.62,11.4 h -13.95 -41.07 -14.01 l -8.56,-11.4 -331.86,-441.38 v 531.17 28.36 h -28.36 -166.98 -28.36 v -28.36 z m 1595.78,0 v -888.43 -28.36 h 28.35 909.09 28.35 v 28.36 151.55 28.36 h -28.35 -674.1 v 141.28 h 381.38 28.35 v 28.36 151.49 28.36 h -28.35 -381.38 v 163.64 h 682.72 28.36 v 28.36 167.03 28.36 h -28.36 -917.71 -28.35 z m 1995.75,-706.82 h -436.22 v 191.19 h 436.22 c 29.27,0 47.98,-3.17 55.92,-9.41 2.26,-1.99 4.3,-4.94 5.67,-8.91 v -0.11 c 2.15,-6.07 3.29,-14.18 3.29,-24.06 V 4169.9 c 0,-9.7 -1.08,-17.52 -3.18,-23.31 -1.42,-3.92 -3.4,-6.98 -5.78,-8.91 -3.12,-2.43 -8.79,-4.59 -16.56,-6.24 -10.04,-2.04 -23.2,-3.17 -39.36,-3.17 z m -696.11,706.82 v -888.43 -28.36 h 28.36 759.29 c 37.67,0 70.73,3.74 98.86,11.17 29.72,7.82 54.22,20.02 73.22,36.35 19.68,16.62 34.43,38.29 44.02,64.94 h 0.05 c 9.08,24.96 13.67,54.34 13.67,87.8 v 208.9 c 0,33.12 -4.59,62.33 -13.67,87.28 h -0.05 c -9.59,26.5 -24.27,48.21 -43.91,65.06 -19.11,16.45 -43.62,28.7 -73.33,36.64 h -0.11 c -28.02,7.42 -61.09,11.28 -98.75,11.28 h -36.47 l 349.11,285.41 61.48,50.31 h -79.41 -296.69 -11.12 l -8.28,-7.77 -349.83,-327.95 h -156.54 v 307.36 28.36 h -28.36 -203.17 -28.36 v -28.36 z m 1380.53,0 v -888.43 -28.36 h 28.36 206.63 28.36 v 28.36 888.43 28.36 h -28.36 -206.63 -28.36 z m 1406.39,-701.67 h -501.1 v 506.27 h 501.1 v -162.73 -34.77 l 34.15,7.1 206.63,43.05 22.57,4.7 v 22.97 105.04 c 0,42.83 -4.2,79.58 -12.6,109.92 -8.96,32.73 -23.14,58.31 -42.19,76.4 -18.83,18.15 -45.09,31.65 -78.84,40.16 h -0.11 c -31.37,7.88 -69.66,11.91 -114.74,11.91 H 14711 c -45.32,0 -83.9,-4.03 -115.37,-11.91 -34.03,-8.63 -60.53,-22.12 -79.18,-40.39 -18.66,-18.1 -32.62,-43.73 -41.46,-76.34 -8.28,-30.34 -12.48,-67.04 -12.48,-109.75 v -468.61 c 0,-42.31 4.2,-78.78 12.48,-109.13 v -0.11 c 8.91,-32.39 22.69,-57.91 41.35,-76.17 18.71,-18.38 45.26,-32.11 79.29,-40.73 h 0.11 c 31.42,-7.93 69.93,-12.02 115.26,-12.02 h 530.83 c 45.14,0 83.43,4.09 114.74,12.02 33.8,8.62 60.29,22.24 79.06,40.5 18.94,18.21 33.07,43.79 42.03,76.23 8.45,30.28 12.65,66.88 12.65,109.41 v 84.34 24.11 l -23.94,3.8 -206.63,33.01 -32.78,5.27 v -33.17 -140.39 z m 906.59,318.65 h 294.83 l -145.26,-273.56 z m -470.08,369.07 503.04,-888.44 8.11,-14.4 h 16.5 199.42 16.39 l 8.23,14.29 509.61,888.43 24.33,42.43 h -48.95 -232.16 -16.78 l -8.06,-14.75 -98.63,-179.8 h -529.97 l -95.57,179.46 -8.05,15.09 h -16.84 -206.01 -48.61 z m 1492.43,13.95 v -888.43 -28.36 h 28.36 141.16 10.21 l 7.94,6.64 625.15,523.39 0.23,0.17 0.17,0.17 c 10.09,8.05 20.25,16.73 30.4,25.64 l 19.11,17.07 -1.76,-28.53 v -0.34 l -1.31,-27.62 v -0.74 l -0.45,-20.31 -0.12,-0.56 v -466.62 -28.36 h 28.36 185.99 28.35 v 28.36 888.43 28.36 h -28.35 -141.17 -10.15 l -8,-6.75 -652.54,-548.98 -0.68,-0.45 -0.52,-0.46 -0.11,-0.23 -19.79,-17.92 0.05,0.97 v 0.45 c 0.63,11.17 1.2,22.52 1.47,33.63 v 0.34 l 0.52,30.52 0.11,0.45 v 480.07 28.36 h -28.36 -185.92 -28.36 v -28.36 z"
     id="path7"
     style="fill:#010101;fill-opacity:1;stroke:#000000;stroke-opacity:0.996127" /><path
     class="fil0"
     d="m 7462.64,5269.63 h -280.58 v 142.38 h 280.58 c 21.6,0 36.39,-3.12 44.34,-9.35 7.95,-6.24 11.93,-17.5 11.93,-33.41 v -57.4 c 0,-15.58 -3.98,-26.52 -11.93,-32.87 -7.95,-6.23 -22.74,-9.35 -44.34,-9.35 z m -403.27,443.89 V 5177.1 h 458.54 c 42.76,0 73.77,8.08 92.86,24.58 19.22,16.24 28.77,42.62 28.77,79.14 v 119.91 c 0,36.39 -9.55,62.77 -28.77,79.2 -19.09,16.44 -50.1,24.59 -92.86,24.59 h -335.85 v 208.99 h -122.69 z m 1155.05,0 V 5177.1 h 124.81 v 207.92 h 389.8 V 5177.1 h 125.81 v 536.42 h -125.81 v -230.79 h -389.8 v 230.79 z m 1434.36,-214.16 h 235.3 l -115.93,-218.33 z m -240.14,214.16 303.7,-536.42 h 120.44 l 307.75,536.42 h -140.19 l -64.42,-117.45 h -340.37 l -62.51,117.45 z m 1690.08,-443.89 h -280.58 v 149.66 h 280.58 c 21.6,0 36.38,-3.11 44.33,-9.35 7.96,-6.43 11.94,-17.5 11.94,-33.47 v -64.62 c 0,-15.58 -3.98,-26.52 -11.94,-32.87 -7.95,-6.23 -22.73,-9.35 -44.33,-9.35 z m -403.27,443.89 V 5177.1 h 458.54 c 42.75,0 73.77,8.08 92.86,24.58 19.22,16.24 28.76,42.62 28.76,79.14 v 126.21 c 0,36.18 -9.54,62.5 -28.76,79 -19.09,16.44 -50.11,24.72 -92.86,24.72 h -70.06 l 247.97,202.76 h -179.16 l -216.22,-202.76 h -118.37 v 202.76 h -122.69 z m 1215.03,0 V 5177.1 h 100.82 l 253,324.32 246.9,-324.32 h 99.95 v 536.42 h -115.4 v -331.48 c 0,-6.43 0.4,-14.52 1.26,-24.25 0.87,-9.88 2.06,-20.82 3.25,-33.08 -6.76,13.86 -12.59,25.26 -17.63,34.27 -5.23,9.02 -9.75,16.31 -13.72,22.01 l -201.69,268.11 h -24.79 l -202.16,-268.98 c -7.49,-10.2 -13.86,-19.75 -19.09,-28.77 -5.17,-9.01 -9.55,-17.63 -12.99,-26.11 1.07,11.26 1.92,21.28 2.45,30.48 0.54,9.15 0.67,17.84 0.67,26.32 v 331.48 h -100.82 z m 1483.21,-214.16 h 235.3 l -115.92,-218.33 z m -240.14,214.16 303.7,-536.42 h 120.44 l 307.75,536.42 h -140.19 l -64.42,-117.45 h -340.37 l -62.5,117.45 z"
     id="path9"
     style="fill:#010101;fill-opacity:1;stroke:#000000;stroke-opacity:0.996127" /><g
     id="g14">
   <path
   class="fil1 str0"
   d="M 4777.8,1261.16 C 3555.84,1542.95 2333.77,1824.74 1111.81,2106.53 -815.55,2825.88 143.93,5581.6 2146.77,4895.6 c 366.55,-132.35 432.68,-476.63 312.09,-772.37 -554.13,200.48 -1340.45,359 -1757.08,493.16 -166.27,-92.5 -308.26,-273.1 -416.43,-470.23 0,0 3980.27,-986.23 4097.42,-1004.58 395.31,-100.43 457.23,-607.73 355.56,-742.75 0,0 -4530.67,1090.38 -4598.43,1090.38 -36.69,-182.7 71.58,-479.5 110.66,-481.98 1382.69,-326.61 2765.28,-653.12 4147.97,-979.73 431.34,-109.61 468.88,-485.04 379.26,-766.35 z"
   id="path11" />
   <path
   id="1"
   class="fil2"
   d="M 4777.8,1261.16 C 3555.84,1542.95 2333.77,1824.74 1111.81,2106.53 -815.55,2825.88 143.93,5581.6 2146.77,4895.6 c 366.55,-132.35 432.68,-476.63 312.09,-772.37 -554.13,200.48 -1340.45,359 -1757.08,493.16 -166.27,-92.5 -308.26,-273.1 -416.43,-470.23 0,0 3980.27,-986.23 4097.42,-1004.58 395.31,-100.43 457.23,-607.73 355.56,-742.75 0,0 -4530.67,1090.38 -4598.43,1090.38 -36.69,-182.7 71.58,-479.5 110.66,-481.98 1382.69,-326.61 2765.28,-653.12 4147.97,-979.73 431.34,-109.61 468.88,-485.04 379.26,-766.35 z" />
  </g><g
     id="g20">
   <path
   class="fil1 str1"
   d="M 4777.8,1261.16 C 3555.84,1542.95 2333.77,1824.74 1111.81,2106.53 -815.55,2825.88 143.93,5581.6 2146.77,4895.6 c 366.55,-132.35 432.68,-476.63 312.09,-772.37 -554.13,200.48 -1340.45,359 -1757.08,493.16 -166.27,-92.5 -308.26,-273.1 -416.43,-470.23 0,0 3980.27,-986.23 4097.42,-1004.58 395.31,-100.43 457.23,-607.73 355.56,-742.75 0,0 -4530.67,1090.38 -4598.43,1090.38 -36.69,-182.7 71.58,-479.5 110.66,-481.98 1382.69,-326.61 2765.28,-653.12 4147.97,-979.73 431.34,-109.61 468.88,-485.04 379.26,-766.35 z"
   id="path16" />
   <path
   id="path18"
   class="fil3"
   d="M 4777.8,1261.16 C 3555.84,1542.95 2333.77,1824.74 1111.81,2106.53 -815.55,2825.88 143.93,5581.6 2146.77,4895.6 c 366.55,-132.35 432.68,-476.63 312.09,-772.37 -554.13,200.48 -1340.45,359 -1757.08,493.16 -166.27,-92.5 -308.26,-273.1 -416.43,-470.23 0,0 3980.27,-986.23 4097.42,-1004.58 395.31,-100.43 457.23,-607.73 355.56,-742.75 0,0 -4530.67,1090.38 -4598.43,1090.38 -36.69,-182.7 71.58,-479.5 110.66,-481.98 1382.69,-326.61 2765.28,-653.12 4147.97,-979.73 431.34,-109.61 468.88,-485.04 379.26,-766.35 z" />
  </g><g
     id="g26">
   <polygon
   class="fil1 str2"
   points="5595.56,1012.14 6115.67,341.04 6086.15,1189.58 6885.17,1476.92 6068.95,1711.13 6042.57,2559.75 5567.76,1855.8 4752.48,2093.16 5275.16,1423.97 4797.58,721.74 "
   id="polygon22" />
   <polygon
   id="polygon24"
   class="fil4"
   points="5595.56,1012.14 6115.67,341.04 6086.15,1189.58 6885.17,1476.92 6068.95,1711.13 6042.57,2559.75 5567.76,1855.8 4752.48,2093.16 5275.16,1423.97 4797.58,721.74 " />
  </g><g
     id="g32">
   <polygon
   class="fil1 str2"
   points="5595.56,1012.14 6115.67,341.04 6086.15,1189.58 6885.17,1476.92 6068.95,1711.13 6042.57,2559.75 5567.76,1855.8 4752.48,2093.16 5275.16,1423.97 4797.58,721.74 "
   id="polygon28" />
   <polygon
   id="polygon30"
   class="fil4"
   points="5595.56,1012.14 6115.67,341.04 6086.15,1189.58 6885.17,1476.92 6068.95,1711.13 6042.57,2559.75 5567.76,1855.8 4752.48,2093.16 5275.16,1423.97 4797.58,721.74 " />
  </g><g
     id="g38">
   <polygon
   class="fil1 str3"
   points="6865.2,445.88 7092.92,146.69 7083.17,522.61 7438.06,646.73 7077.53,753.56 7069.12,1129.48 6856.13,819.59 6496.08,927.76 6724.94,629.43 6510.79,320.41 "
   id="polygon34" />
   <polygon
   id="polygon36"
   class="fil4"
   points="6865.2,445.88 7092.92,146.69 7083.17,522.61 7438.06,646.73 7077.53,753.56 7069.12,1129.48 6856.13,819.59 6496.08,927.76 6724.94,629.43 6510.79,320.41 " />
  </g><g
     id="g44">
   <polygon
   class="fil1 str3"
   points="6865.2,445.88 7092.92,146.69 7083.17,522.61 7438.06,646.73 7077.53,753.56 7069.12,1129.48 6856.13,819.59 6496.08,927.76 6724.94,629.43 6510.79,320.41 "
   id="polygon40" />
   <polygon
   id="polygon42"
   class="fil4"
   points="6865.2,445.88 7092.92,146.69 7083.17,522.61 7438.06,646.73 7077.53,753.56 7069.12,1129.48 6856.13,819.59 6496.08,927.76 6724.94,629.43 6510.79,320.41 " />
  </g><g
     id="g50">
   <polygon
   class="fil1 str4"
   points="7634.05,1251.21 7779.39,1067.27 7768.97,1301.47 7988.94,1382.89 7762.95,1445.38 7753.4,1679.69 7624.11,1484.08 7398.4,1547.53 7544.51,1364.06 7414.46,1168.94 "
   id="polygon46" />
   <polygon
   id="polygon48"
   class="fil4"
   points="7634.05,1251.21 7779.39,1067.27 7768.97,1301.47 7988.94,1382.89 7762.95,1445.38 7753.4,1679.69 7624.11,1484.08 7398.4,1547.53 7544.51,1364.06 7414.46,1168.94 " />
  </g><g
     id="g56">
   <polygon
   class="fil1 str4"
   points="7634.05,1251.21 7779.39,1067.27 7768.97,1301.47 7988.94,1382.89 7762.95,1445.38 7753.4,1679.69 7624.11,1484.08 7398.4,1547.53 7544.51,1364.06 7414.46,1168.94 "
   id="polygon52" />
   <polygon
   id="polygon54"
   class="fil4"
   points="7634.05,1251.21 7779.39,1067.27 7768.97,1301.47 7988.94,1382.89 7762.95,1445.38 7753.4,1679.69 7624.11,1484.08 7398.4,1547.53 7544.51,1364.06 7414.46,1168.94 " />
  </g><g
     id="g62">
   <polygon
   class="fil1 str5"
   points="6882.98,2098.03 7118.05,1800.56 7101.33,2179.34 7456.98,2311.02 7091.48,2412.12 7076.09,2791 6867.03,2474.71 6502,2577.24 6738.21,2280.64 6527.9,1965.02 "
   id="polygon58" />
   <polygon
   id="polygon60"
   class="fil4"
   points="6882.98,2098.03 7118.05,1800.56 7101.33,2179.34 7456.98,2311.02 7091.48,2412.12 7076.09,2791 6867.03,2474.71 6502,2577.24 6738.21,2280.64 6527.9,1965.02 " />
  </g><g
     id="g68">
   <polygon
   class="fil1 str5"
   points="6882.98,2098.03 7118.05,1800.56 7101.33,2179.34 7456.98,2311.02 7091.48,2412.12 7076.09,2791 6867.03,2474.71 6502,2577.24 6738.21,2280.64 6527.9,1965.02 "
   id="polygon64" />
   <polygon
   id="polygon66"
   class="fil4"
   points="6882.98,2098.03 7118.05,1800.56 7101.33,2179.34 7456.98,2311.02 7091.48,2412.12 7076.09,2791 6867.03,2474.71 6502,2577.24 6738.21,2280.64 6527.9,1965.02 " />
  </g></g>
</svg>
